<svg width="183" height="36" viewBox="0 0 183 36" fill="none" xmlns="http://www.w3.org/2000/svg">
<path d="M21.703 13.55C21.703 15.0433 21.353 16.4083 20.653 17.645C19.9764 18.8583 18.938 19.8383 17.538 20.585C16.1614 21.3083 14.4697 21.67 12.463 21.67H9.06805V30H2.20805V5.325H12.463C14.4464 5.325 16.1264 5.675 17.503 6.375C18.903 7.075 19.953 8.04333 20.653 9.28C21.353 10.5167 21.703 11.94 21.703 13.55ZM11.798 16.21C13.7347 16.21 14.703 15.3233 14.703 13.55C14.703 11.7533 13.7347 10.855 11.798 10.855H9.06805V16.21H11.798ZM36.954 30L32.054 20.9H31.319V30H24.459V5.325H35.274C37.2574 5.325 38.9374 5.675 40.314 6.375C41.6907 7.05167 42.729 7.99667 43.429 9.21C44.129 10.4 44.479 11.7417 44.479 13.235C44.479 14.915 44.0124 16.3967 43.079 17.68C42.169 18.94 40.8274 19.8383 39.054 20.375L44.619 30H36.954ZM31.319 16.21H34.714C35.6474 16.21 36.3474 15.9883 36.814 15.545C37.2807 15.1017 37.514 14.46 37.514 13.62C37.514 12.8267 37.269 12.2083 36.779 11.765C36.3124 11.2983 35.624 11.065 34.714 11.065H31.319V16.21ZM59.4287 30.245C57.1187 30.245 54.9953 29.7083 53.0587 28.635C51.122 27.5383 49.582 26.0333 48.4387 24.12C47.3187 22.1833 46.7587 20.0017 46.7587 17.575C46.7587 15.1483 47.3187 12.9783 48.4387 11.065C49.582 9.12833 51.122 7.62333 53.0587 6.55C54.9953 5.47667 57.1187 4.94 59.4287 4.94C61.762 4.94 63.8853 5.47667 65.7987 6.55C67.7353 7.62333 69.2637 9.12833 70.3837 11.065C71.5037 12.9783 72.0637 15.1483 72.0637 17.575C72.0637 20.0017 71.5037 22.1833 70.3837 24.12C69.2637 26.0333 67.7353 27.5383 65.7987 28.635C63.862 29.7083 61.7387 30.245 59.4287 30.245ZM59.4287 23.875C61.1787 23.875 62.5553 23.3033 63.5587 22.16C64.5853 21.0167 65.0987 19.4883 65.0987 17.575C65.0987 15.615 64.5853 14.075 63.5587 12.955C62.5553 11.8117 61.1787 11.24 59.4287 11.24C57.6553 11.24 56.267 11.8117 55.2637 12.955C54.2603 14.075 53.7587 15.615 53.7587 17.575C53.7587 19.5117 54.2603 21.0517 55.2637 22.195C56.267 23.315 57.6553 23.875 59.4287 23.875ZM91.4925 5.325V21.67C91.4925 24.4467 90.7342 26.57 89.2175 28.04C87.7242 29.51 85.6592 30.245 83.0225 30.245C80.2225 30.245 77.9825 29.4633 76.3025 27.9C74.6458 26.3367 73.8175 24.085 73.8175 21.145H80.6075C80.6308 23.0817 81.3425 24.05 82.7425 24.05C84.0025 24.05 84.6325 23.2567 84.6325 21.67V5.325H91.4925ZM102.447 10.82V14.845H110.322V20.06H102.447V24.505H111.372V30H95.587V5.325H111.372V10.82H102.447ZM113.922 17.61C113.922 15.1833 114.423 13.025 115.427 11.135C116.453 9.22167 117.9 7.74 119.767 6.69C121.633 5.61667 123.78 5.08 126.207 5.08C129.287 5.08 131.877 5.90833 133.977 7.565C136.077 9.19833 137.43 11.4267 138.037 14.25H130.652C130.208 13.3167 129.59 12.605 128.797 12.115C128.027 11.625 127.128 11.38 126.102 11.38C124.515 11.38 123.243 11.9517 122.287 13.095C121.353 14.215 120.887 15.72 120.887 17.61C120.887 19.5233 121.353 21.0517 122.287 22.195C123.243 23.315 124.515 23.875 126.102 23.875C127.128 23.875 128.027 23.63 128.797 23.14C129.59 22.65 130.208 21.9383 130.652 21.005H138.037C137.43 23.8283 136.077 26.0683 133.977 27.725C131.877 29.3583 129.287 30.175 126.207 30.175C123.78 30.175 121.633 29.65 119.767 28.6C117.9 27.5267 116.453 26.045 115.427 24.155C114.423 22.2417 113.922 20.06 113.922 17.61ZM159.87 5.325V10.785H153.29V30H146.43V10.785H139.92V5.325H159.87ZM171.718 30.245C168.848 30.245 166.492 29.5683 164.648 28.215C162.805 26.8383 161.813 24.8783 161.673 22.335H168.988C169.058 23.1983 169.315 23.8283 169.758 24.225C170.202 24.6217 170.773 24.82 171.473 24.82C172.103 24.82 172.617 24.6683 173.013 24.365C173.433 24.0383 173.643 23.595 173.643 23.035C173.643 22.3117 173.305 21.7517 172.628 21.355C171.952 20.9583 170.855 20.515 169.338 20.025C167.728 19.4883 166.422 18.975 165.418 18.485C164.438 17.9717 163.575 17.2367 162.828 16.28C162.105 15.3 161.743 14.0283 161.743 12.465C161.743 10.8783 162.14 9.525 162.933 8.405C163.727 7.26167 164.823 6.39833 166.223 5.815C167.623 5.23167 169.21 4.94 170.983 4.94C173.853 4.94 176.14 5.61667 177.843 6.97C179.57 8.3 180.492 10.1783 180.608 12.605H173.153C173.13 11.8583 172.897 11.2983 172.453 10.925C172.033 10.5517 171.485 10.365 170.808 10.365C170.295 10.365 169.875 10.5167 169.548 10.82C169.222 11.1233 169.058 11.555 169.058 12.115C169.058 12.5817 169.233 12.99 169.583 13.34C169.957 13.6667 170.412 13.9583 170.948 14.215C171.485 14.4483 172.278 14.7517 173.328 15.125C174.892 15.6617 176.175 16.1983 177.178 16.735C178.205 17.2483 179.08 17.9833 179.803 18.94C180.55 19.8733 180.923 21.0633 180.923 22.51C180.923 23.98 180.55 25.2983 179.803 26.465C179.08 27.6317 178.018 28.5533 176.618 29.23C175.242 29.9067 173.608 30.245 171.718 30.245Z" fill="url(#paint0_linear_19_106)"/>
<defs>
<linearGradient id="paint0_linear_19_106" x1="91.248" y1="0" x2="91.248" y2="36" gradientUnits="userSpaceOnUse">
<stop stop-color="#FF8660"/>
<stop offset="1" stop-color="#D5491D"/>
</linearGradient>
</defs>
</svg>
